<svg width="45" height="48" viewBox="0 0 45 48" fill="none" xmlns="http://www.w3.org/2000/svg">
<path d="M0 23.0116V39.4204C0 39.6283 0.0825922 39.8277 0.229607 39.9747L6.51669 46.2618C7.01054 46.7556 7.85494 46.4059 7.85494 45.7075V29.2987C7.85494 29.0908 7.77235 28.8914 7.62533 28.7443L1.33825 22.4573C0.8444 21.9634 0 22.3132 0 23.0116Z" fill="white"/>
<path d="M44.7778 23.0116V39.4204C44.7778 39.6283 44.6952 39.8277 44.5482 39.9747L38.2611 46.2618C37.7673 46.7556 36.9229 46.4059 36.9229 45.7075V29.2987C36.9229 29.0908 37.0055 28.8914 37.1525 28.7443L43.4396 22.4573C43.9334 21.9634 44.7778 22.3132 44.7778 23.0116Z" fill="white"/>
<path d="M0 7.29505V1.89256C0 1.19416 0.8444 0.8444 1.33825 1.33825L21.7876 21.7876C22.0937 22.0937 22.5901 22.0937 22.8962 21.7876L43.3455 1.33825C43.8394 0.844399 44.6838 1.19416 44.6838 1.89256V7.29505C44.6838 7.50296 44.6012 7.70235 44.4542 7.84937L35.3652 16.9384C35.2182 17.0854 35.1356 17.2848 35.1356 17.4927V18.2857C35.1356 18.9841 35.98 19.3339 36.4738 18.84L43.3455 11.9683C43.8394 11.4744 44.6838 11.8242 44.6838 12.5226V17.9721C44.6838 18.18 44.6012 18.3794 44.4542 18.5264L22.8962 40.0844C22.5901 40.3905 22.0937 40.3905 21.7876 40.0844L0.229607 18.5264C0.082592 18.3794 0 18.18 0 17.9721V12.5226C0 11.8242 0.844401 11.4744 1.33825 11.9683L8.20997 18.84C8.70382 19.3339 9.54822 18.9841 9.54822 18.2857V17.4927C9.54822 17.2848 9.46563 17.0854 9.31861 16.9384L0.229607 7.84937C0.082592 7.70235 0 7.50296 0 7.29505Z" fill="white"/>
<path d="M21.8816 20.8938L18.3651 17.3773C17.8713 16.8835 18.221 16.0391 18.9194 16.0391H25.9525C26.6509 16.0391 27.0006 16.8835 26.5068 17.3773L22.9903 20.8938C22.6841 21.2 22.1878 21.2 21.8816 20.8938Z" fill="#FD800E"/>
</svg>
